# xmcd
#
# Track frame offsets: 
#        150
#        17537
#        40172
#        55912
#        78722
#        96920
#        120567
#        138032
#        155500
#        175735
#        193952
#
# Disc length: 2832 seconds
#
# Revision: 0
# Processed by: cddbd v1.5.2PL0 Copyright (c) Steve Scherf et al.
# Submitted via: ExactAudioCopy v0.99pb5
#
DISCID=8b0b0e0b
DTITLE=Jackie Allen - Love Is Blue
DYEAR=2004
DGENRE=Blues
TTITLE0=Lazy Afternoon
TTITLE1=Go
TTITLE2=The Performer
TTITLE3=Love Is Blue
TTITLE4=Moon of Deception
TTITLE5=Pavement Cracks
TTITLE6=Here Today
TTITLE7=Turnin' Round
TTITLE8=Taste Of Honey
TTITLE9=You Become My Song
TTITLE10=I'll Be Around
EXTD=
EXTT0=
EXTT1=
EXTT2=
EXTT3=
EXTT4=
EXTT5=
EXTT6=
EXTT7=
EXTT8=
EXTT9=
EXTT10=
PLAYORDER=
